<svg width="36" height="36" viewBox="0 0 36 36" fill="none" xmlns="http://www.w3.org/2000/svg">
<path d="M23.625 13.5V20.25C23.625 20.5484 23.5065 20.8345 23.2955 21.0455C23.0845 21.2565 22.7984 21.375 22.5 21.375C22.2016 21.375 21.9155 21.2565 21.7045 21.0455C21.4935 20.8345 21.375 20.5484 21.375 20.25V16.2155L14.2959 23.2959C14.1914 23.4005 14.0673 23.4834 13.9308 23.5399C13.7942 23.5965 13.6478 23.6256 13.5 23.6256C13.3522 23.6256 13.2058 23.5965 13.0692 23.5399C12.9327 23.4834 12.8086 23.4005 12.7041 23.2959C12.5995 23.1914 12.5166 23.0673 12.4601 22.9308C12.4035 22.7942 12.3744 22.6478 12.3744 22.5C12.3744 22.3522 12.4035 22.2058 12.4601 22.0692C12.5166 21.9327 12.5995 21.8086 12.7041 21.7041L19.7845 14.625H15.75C15.4516 14.625 15.1655 14.5065 14.9545 14.2955C14.7435 14.0845 14.625 13.7984 14.625 13.5C14.625 13.2016 14.7435 12.9155 14.9545 12.7045C15.1655 12.4935 15.4516 12.375 15.75 12.375H22.5C22.7984 12.375 23.0845 12.4935 23.2955 12.7045C23.5065 12.9155 23.625 13.2016 23.625 13.5ZM32.625 18C32.625 20.8926 31.7673 23.7201 30.1602 26.1252C28.5532 28.5303 26.2691 30.4048 23.5968 31.5117C20.9244 32.6187 17.9838 32.9083 15.1468 32.344C12.3098 31.7797 9.70391 30.3868 7.65857 28.3414C5.61323 26.2961 4.22033 23.6902 3.65602 20.8532C3.09171 18.0162 3.38134 15.0756 4.48827 12.4033C5.5952 9.73089 7.46972 7.44677 9.87479 5.83976C12.2799 4.23274 15.1075 3.375 18 3.375C21.8775 3.37909 25.5951 4.92125 28.3369 7.66309C31.0788 10.4049 32.6209 14.1225 32.625 18ZM30.375 18C30.375 15.5525 29.6492 13.1599 28.2894 11.1248C26.9297 9.08976 24.997 7.50363 22.7357 6.56699C20.4745 5.63036 17.9863 5.38529 15.5858 5.86278C13.1852 6.34027 10.9802 7.51888 9.24956 9.24955C7.51889 10.9802 6.34028 13.1852 5.86279 15.5858C5.3853 17.9863 5.63036 20.4745 6.567 22.7357C7.50363 24.9969 9.08977 26.9297 11.1248 28.2894C13.1599 29.6492 15.5525 30.375 18 30.375C21.2809 30.3713 24.4264 29.0663 26.7463 26.7463C29.0663 24.4264 30.3713 21.2809 30.375 18Z" fill="#755388"/>
</svg>
