<svg width="1856" height="574" viewBox="0 0 1856 574" fill="none" xmlns="http://www.w3.org/2000/svg">
<path d="M867.582 291C867.651 292.007 867.745 293.007 867.862 294H607.783V509.538H910.783V344.535C911.773 344.797 912.774 345.031 913.783 345.238V512.538H604.783V291H867.582Z" fill="#5BB56F"/>
<path d="M913.783 345C880.605 333.456 874.556 319.109 867.783 291" stroke="#5BB56F" stroke-width="3"/>
<path d="M688.756 331H686.524V317.842H688.756L693.004 328.318L697.252 317.842H699.52V331H697.288V326.95C697.288 324.304 697.288 323.53 697.414 322.594L694.066 331H691.942L688.612 322.612C688.738 323.404 688.756 324.646 688.756 326.284V331ZM704.737 317.842V331H702.433V317.842H704.737ZM709.921 331H707.653V317.842H709.939L716.113 327.166V317.842H718.381V331H716.113L709.921 321.676V331ZM723.598 317.842V331H721.294V317.842H723.598ZM728.747 331H726.515V317.842H728.747L732.995 328.318L737.243 317.842H739.511V331H737.279V326.95C737.279 324.304 737.279 323.53 737.405 322.594L734.057 331H731.933L728.603 322.612C728.729 323.404 728.747 324.646 728.747 326.284V331ZM743.557 331H741.163L745.915 317.842H748.273L753.025 331H750.595L749.533 327.958H744.619L743.557 331ZM746.797 321.766L745.303 326.014H748.867L747.355 321.766C747.247 321.424 747.121 321.028 747.085 320.758C747.031 321.01 746.923 321.406 746.797 321.766ZM756.979 317.842V328.876H762.487V331H754.675V317.842H756.979ZM777.384 331H769.212V317.842H777.384V319.966H771.516V323.35H776.772V325.384H771.516V328.876H777.384V331ZM787.082 325.618H782.186V331H779.882V317.842H788.018V319.966H782.186V323.548H787.082V325.618ZM797.295 325.618H792.399V331H790.095V317.842H798.231V319.966H792.399V323.548H797.295V325.618ZM812.314 324.412C812.314 328.408 809.686 331.216 805.906 331.216C802.144 331.216 799.552 328.426 799.552 324.412C799.552 320.416 802.162 317.608 805.924 317.608C809.686 317.608 812.314 320.398 812.314 324.412ZM809.884 324.412C809.884 321.604 808.336 319.822 805.924 319.822C803.512 319.822 801.964 321.604 801.964 324.412C801.964 327.22 803.512 329.002 805.924 329.002C808.336 329.002 809.884 327.184 809.884 324.412ZM816.762 331H814.458V317.842H819.48C822.468 317.842 824.214 319.354 824.214 321.946C824.214 323.71 823.386 324.97 821.838 325.6L824.34 331H821.82L819.588 326.086H816.762V331ZM816.762 319.894V324.052H819.48C820.938 324.052 821.802 323.278 821.802 321.946C821.802 320.632 820.938 319.894 819.48 319.894H816.762ZM825.189 319.966V317.842H835.197V319.966H831.345V331H829.041V319.966H825.189Z" fill="#328948"/>
<path d="M691.398 340.976L689.956 350.104H694.478L694.338 351H688.864L690.446 340.976H691.398ZM695.503 348.088C695.503 345.862 697.239 344.042 699.367 344.042C701.145 344.042 702.349 345.302 702.349 347.122C702.349 349.362 700.613 351.168 698.499 351.168C696.721 351.168 695.503 349.922 695.503 348.088ZM696.441 348.046C696.441 349.46 697.267 350.342 698.583 350.342C700.137 350.342 701.411 348.914 701.411 347.164C701.411 345.75 700.585 344.868 699.269 344.868C697.715 344.868 696.441 346.296 696.441 348.046ZM704.368 351L703.234 344.224H704.158L704.816 348.368C704.872 348.732 704.942 349.236 704.998 349.824C705.194 349.292 705.334 348.97 705.614 348.368L707.616 344.224H708.568L709.212 348.368C709.268 348.732 709.338 349.404 709.38 349.81C709.604 349.278 709.828 348.732 710.01 348.368L712.012 344.224H712.992L709.674 351H708.792L708.092 346.674C708.022 346.268 707.952 345.708 707.938 345.344C707.742 345.834 707.532 346.268 707.35 346.688L705.278 351H704.368ZM721.337 347.318H718.677L718.089 351H717.137L718.719 340.976H722.177C723.885 340.976 725.061 342.11 725.061 343.762C725.061 345.904 723.591 347.318 721.337 347.318ZM721.981 341.844H719.531L718.803 346.45H721.295C723.031 346.45 724.081 345.442 724.081 343.804C724.081 342.628 723.255 341.844 721.981 341.844ZM725.185 348.088C725.185 345.862 726.921 344.042 729.049 344.042C730.827 344.042 732.031 345.302 732.031 347.122C732.031 349.362 730.295 351.168 728.181 351.168C726.403 351.168 725.185 349.922 725.185 348.088ZM726.123 348.046C726.123 349.46 726.949 350.342 728.265 350.342C729.819 350.342 731.093 348.914 731.093 347.164C731.093 345.75 730.267 344.868 728.951 344.868C727.397 344.868 726.123 346.296 726.123 348.046ZM734.05 351L732.916 344.224H733.84L734.498 348.368C734.554 348.732 734.624 349.236 734.68 349.824C734.876 349.292 735.016 348.97 735.296 348.368L737.298 344.224H738.25L738.894 348.368C738.95 348.732 739.02 349.404 739.062 349.81C739.286 349.278 739.51 348.732 739.692 348.368L741.694 344.224H742.674L739.356 351H738.474L737.774 346.674C737.704 346.268 737.634 345.708 737.62 345.344C737.424 345.834 737.214 346.268 737.032 346.688L734.96 351H734.05ZM745.46 351.168C743.738 351.168 742.562 349.936 742.562 348.158C742.562 345.834 744.144 344.042 746.188 344.042C748.05 344.042 749.156 345.428 748.862 347.262L748.792 347.724H743.486C743.472 347.85 743.472 347.976 743.472 348.116C743.472 349.488 744.256 350.37 745.474 350.37C746.468 350.37 747.322 349.852 747.658 348.984H748.582C748.134 350.342 746.902 351.168 745.46 351.168ZM746.16 344.84C744.956 344.84 743.962 345.75 743.612 347.052H747.966C748.176 345.722 747.42 344.84 746.16 344.84ZM754.316 344.14L754.19 344.966H753.658C752.468 344.966 751.53 345.806 751.334 347.094L750.704 351H749.794L750.858 344.224H751.684L751.586 345.358C751.964 344.588 752.748 344.07 753.658 344.07C753.882 344.07 754.106 344.098 754.316 344.14ZM755.208 350.286C755.208 351.196 754.396 352.12 753.444 352.26L753.528 351.756C754.046 351.644 754.452 351.266 754.494 350.916C754.41 350.972 754.298 351.014 754.13 351.014C753.794 351.014 753.528 350.776 753.528 350.412C753.528 349.894 753.962 349.446 754.48 349.446C754.9 349.446 755.208 349.754 755.208 350.286ZM763.64 340.976L762.198 350.104H766.72L766.58 351H761.106L762.688 340.976H763.64ZM767.746 348.088C767.746 345.862 769.482 344.042 771.61 344.042C773.388 344.042 774.592 345.302 774.592 347.122C774.592 349.362 772.856 351.168 770.742 351.168C768.964 351.168 767.746 349.922 767.746 348.088ZM768.684 348.046C768.684 349.46 769.51 350.342 770.826 350.342C772.38 350.342 773.654 348.914 773.654 347.164C773.654 345.75 772.828 344.868 771.512 344.868C769.958 344.868 768.684 346.296 768.684 348.046ZM776.61 351L775.476 344.224H776.4L777.058 348.368C777.114 348.732 777.184 349.236 777.24 349.824C777.436 349.292 777.576 348.97 777.856 348.368L779.858 344.224H780.81L781.454 348.368C781.51 348.732 781.58 349.404 781.622 349.81C781.846 349.278 782.07 348.732 782.252 348.368L784.254 344.224H785.234L781.916 351H781.034L780.334 346.674C780.264 346.268 780.194 345.708 780.18 345.344C779.984 345.834 779.774 346.268 779.592 346.688L777.52 351H776.61ZM791.913 340.976L790.331 351H789.379L790.961 340.976H791.913ZM793.484 351H792.574L793.638 344.224H794.436L794.366 345.442C794.996 344.504 795.766 344.042 796.802 344.042C798.356 344.042 799.266 345.19 799 346.87L798.356 351H797.432L798.062 347.066C798.3 345.652 797.754 344.882 796.564 344.882C795.248 344.882 794.296 345.876 794.044 347.472L793.484 351ZM801.769 351H800.845L801.797 345.008H800.481L800.607 344.224H801.923L802.259 342.082H803.169L802.833 344.224H804.163L804.037 345.008H802.707L801.769 351ZM807.188 351.168C805.466 351.168 804.29 349.936 804.29 348.158C804.29 345.834 805.872 344.042 807.916 344.042C809.778 344.042 810.884 345.428 810.59 347.262L810.52 347.724H805.214C805.2 347.85 805.2 347.976 805.2 348.116C805.2 349.488 805.984 350.37 807.202 350.37C808.196 350.37 809.05 349.852 809.386 348.984H810.31C809.862 350.342 808.63 351.168 807.188 351.168ZM807.888 344.84C806.684 344.84 805.69 345.75 805.34 347.052H809.694C809.904 345.722 809.148 344.84 807.888 344.84ZM816.045 344.14L815.919 344.966H815.387C814.197 344.966 813.259 345.806 813.063 347.094L812.433 351H811.523L812.587 344.224H813.413L813.315 345.358C813.693 344.588 814.477 344.07 815.387 344.07C815.611 344.07 815.835 344.098 816.045 344.14ZM818.892 351.168C817.17 351.168 815.994 349.936 815.994 348.158C815.994 345.834 817.576 344.042 819.62 344.042C821.482 344.042 822.588 345.428 822.294 347.262L822.224 347.724H816.918C816.904 347.85 816.904 347.976 816.904 348.116C816.904 349.488 817.688 350.37 818.906 350.37C819.9 350.37 820.754 349.852 821.09 348.984H822.014C821.566 350.342 820.334 351.168 818.892 351.168ZM819.592 344.84C818.388 344.84 817.394 345.75 817.044 347.052H821.398C821.608 345.722 820.852 344.84 819.592 344.84ZM822.904 349.152H823.828C823.828 349.894 824.444 350.398 825.354 350.398C826.32 350.398 826.978 349.908 826.978 349.166C826.978 348.634 826.74 348.354 826.096 348.116L824.99 347.738C824.052 347.416 823.562 346.842 823.562 345.988C823.562 344.826 824.528 344.042 825.984 344.042C827.398 344.042 828.252 344.826 828.252 346.086H827.328C827.3 345.218 826.852 344.812 825.928 344.812C825.032 344.812 824.458 345.246 824.458 345.946C824.458 346.464 824.752 346.8 825.396 347.038L826.474 347.416C827.468 347.766 827.888 348.27 827.888 349.124C827.888 350.342 826.852 351.168 825.326 351.168C823.898 351.168 822.904 350.342 822.904 349.152ZM830.274 351H829.35L830.302 345.008H828.986L829.112 344.224H830.428L830.764 342.082H831.674L831.338 344.224H832.668L832.542 345.008H831.212L830.274 351Z" fill="#328948"/>
<path d="M1251.22 275H990.104C989.836 273.989 989.54 272.988 989.219 272H1248.22V64H945.105V233.196C944.114 233.01 943.114 232.849 942.105 232.714V61H1251.22V275Z" fill="#EA4D42"/>
<path d="M942.783 231C969.006 238.776 979.553 248.122 991.783 274" stroke="#EA4D42" stroke-width="3"/>
<path d="M1042.79 87.842V94.754L1048.12 87.842H1050.84L1046.48 93.458L1050.89 101H1048.23L1044.97 95.402L1042.79 98.192V101H1040.49V87.842H1042.79ZM1060.79 101H1052.62V87.842H1060.79V89.966H1054.92V93.35H1060.18V95.384H1054.92V98.876H1060.79V101ZM1066.45 95.816L1062.01 87.842H1064.58L1067.17 92.63C1067.37 92.99 1067.5 93.278 1067.64 93.602C1067.8 93.278 1067.88 93.062 1068.11 92.63L1070.68 87.842H1073.19L1068.76 95.816V101H1066.45V95.816ZM1084.87 96.464H1081.97V101H1079.67V87.842H1084.87C1087.52 87.842 1089.23 89.57 1089.23 92.144C1089.23 94.682 1087.5 96.464 1084.87 96.464ZM1084.42 89.894H1081.97V94.412H1084.38C1085.97 94.412 1086.81 93.566 1086.81 92.126C1086.81 90.686 1085.95 89.894 1084.42 89.894ZM1093.47 87.842V98.876H1098.98V101H1091.17V87.842H1093.47ZM1102.34 101H1099.94L1104.69 87.842H1107.05L1111.8 101H1109.37L1108.31 97.958H1103.4L1102.34 101ZM1105.58 91.766L1104.08 96.014H1107.65L1106.13 91.766C1106.03 91.424 1105.9 91.028 1105.86 90.758C1105.81 91.01 1105.7 91.406 1105.58 91.766ZM1115.25 95.816L1110.81 87.842H1113.38L1115.97 92.63C1116.17 92.99 1116.3 93.278 1116.44 93.602C1116.6 93.278 1116.67 93.062 1116.91 92.63L1119.48 87.842H1121.98L1117.56 95.816V101H1115.25V95.816ZM1131.79 101H1123.61V87.842H1131.79V89.966H1125.92V93.35H1131.17V95.384H1125.92V98.876H1131.79V101ZM1136.59 101H1134.28V87.842H1139.31C1142.29 87.842 1144.04 89.354 1144.04 91.946C1144.04 93.71 1143.21 94.97 1141.66 95.6L1144.17 101H1141.65L1139.41 96.086H1136.59V101ZM1136.59 89.894V94.052H1139.31C1140.76 94.052 1141.63 93.278 1141.63 91.946C1141.63 90.632 1140.76 89.894 1139.31 89.894H1136.59ZM1145.59 91.514C1145.59 89.21 1147.49 87.608 1150.27 87.608C1152.93 87.608 1154.62 89.084 1154.69 91.46H1152.39C1152.34 90.326 1151.53 89.66 1150.23 89.66C1148.81 89.66 1147.89 90.344 1147.89 91.442C1147.89 92.378 1148.39 92.9 1149.49 93.152L1151.56 93.602C1153.81 94.088 1154.91 95.24 1154.91 97.202C1154.91 99.65 1153 101.234 1150.1 101.234C1147.3 101.234 1145.46 99.74 1145.41 97.382H1147.71C1147.73 98.498 1148.63 99.164 1150.1 99.164C1151.63 99.164 1152.61 98.498 1152.61 97.4C1152.61 96.518 1152.16 95.996 1151.08 95.762L1148.99 95.294C1146.76 94.808 1145.59 93.53 1145.59 91.514Z" fill="#CD3236"/>
<path d="M1022.43 121H1021.48L1023.06 110.976H1024.01L1023.31 115.47H1028.65L1029.36 110.976H1030.31L1028.73 121H1027.78L1028.49 116.352H1023.17L1022.43 121ZM1032.8 112.348C1032.45 112.348 1032.2 112.096 1032.2 111.76C1032.2 111.326 1032.57 110.934 1033.01 110.934C1033.34 110.934 1033.6 111.186 1033.6 111.522C1033.6 111.956 1033.23 112.348 1032.8 112.348ZM1030.98 121L1032.04 114.224H1032.97L1031.89 121H1030.98ZM1033.93 117.976C1033.93 115.778 1035.53 114.042 1037.56 114.042C1038.68 114.042 1039.53 114.616 1039.81 115.568L1040.13 114.224H1040.96L1039.92 120.804C1039.57 122.96 1038.38 124.108 1036.45 124.108C1034.7 124.108 1033.53 123.072 1033.47 121.504H1034.39C1034.45 122.582 1035.25 123.268 1036.47 123.268C1037.85 123.268 1038.75 122.428 1038.99 120.888L1039.25 119.306C1038.66 120.244 1037.73 120.79 1036.63 120.79C1035.04 120.79 1033.93 119.642 1033.93 117.976ZM1034.87 117.934C1034.87 119.166 1035.61 119.964 1036.76 119.964C1038.31 119.964 1039.5 118.634 1039.5 116.856C1039.5 115.624 1038.78 114.868 1037.59 114.868C1036.06 114.868 1034.87 116.226 1034.87 117.934ZM1042.81 121H1041.9L1043.51 110.794H1044.42L1043.69 115.442C1044.32 114.504 1045.09 114.042 1046.13 114.042C1047.68 114.042 1048.59 115.19 1048.33 116.87L1047.67 121H1046.76L1047.39 117.066C1047.61 115.652 1047.07 114.882 1045.89 114.882C1044.58 114.882 1043.62 115.876 1043.37 117.472L1042.81 121ZM1057.84 117.318H1055.18L1054.59 121H1053.64L1055.22 110.976H1058.68C1060.39 110.976 1061.56 112.11 1061.56 113.762C1061.56 115.904 1060.09 117.318 1057.84 117.318ZM1058.48 111.844H1056.03L1055.3 116.45H1057.8C1059.53 116.45 1060.58 115.442 1060.58 113.804C1060.58 112.628 1059.76 111.844 1058.48 111.844ZM1061.68 118.088C1061.68 115.862 1063.42 114.042 1065.55 114.042C1067.33 114.042 1068.53 115.302 1068.53 117.122C1068.53 119.362 1066.79 121.168 1064.68 121.168C1062.9 121.168 1061.68 119.922 1061.68 118.088ZM1062.62 118.046C1062.62 119.46 1063.45 120.342 1064.76 120.342C1066.32 120.342 1067.59 118.914 1067.59 117.164C1067.59 115.75 1066.77 114.868 1065.45 114.868C1063.9 114.868 1062.62 116.296 1062.62 118.046ZM1070.55 121L1069.42 114.224H1070.34L1071 118.368C1071.05 118.732 1071.12 119.236 1071.18 119.824C1071.38 119.292 1071.52 118.97 1071.8 118.368L1073.8 114.224H1074.75L1075.39 118.368C1075.45 118.732 1075.52 119.404 1075.56 119.81C1075.79 119.278 1076.01 118.732 1076.19 118.368L1078.19 114.224H1079.17L1075.86 121H1074.97L1074.27 116.674C1074.2 116.268 1074.13 115.708 1074.12 115.344C1073.92 115.834 1073.71 116.268 1073.53 116.688L1071.46 121H1070.55ZM1081.96 121.168C1080.24 121.168 1079.06 119.936 1079.06 118.158C1079.06 115.834 1080.64 114.042 1082.69 114.042C1084.55 114.042 1085.66 115.428 1085.36 117.262L1085.29 117.724H1079.99C1079.97 117.85 1079.97 117.976 1079.97 118.116C1079.97 119.488 1080.76 120.37 1081.97 120.37C1082.97 120.37 1083.82 119.852 1084.16 118.984H1085.08C1084.63 120.342 1083.4 121.168 1081.96 121.168ZM1082.66 114.84C1081.46 114.84 1080.46 115.75 1080.11 117.052H1084.47C1084.68 115.722 1083.92 114.84 1082.66 114.84ZM1090.82 114.14L1090.69 114.966H1090.16C1088.97 114.966 1088.03 115.806 1087.83 117.094L1087.2 121H1086.29L1087.36 114.224H1088.18L1088.09 115.358C1088.46 114.588 1089.25 114.07 1090.16 114.07C1090.38 114.07 1090.61 114.098 1090.82 114.14ZM1091.71 120.286C1091.71 121.196 1090.9 122.12 1089.94 122.26L1090.03 121.756C1090.55 121.644 1090.95 121.266 1090.99 120.916C1090.91 120.972 1090.8 121.014 1090.63 121.014C1090.29 121.014 1090.03 120.776 1090.03 120.412C1090.03 119.894 1090.46 119.446 1090.98 119.446C1091.4 119.446 1091.71 119.754 1091.71 120.286ZM1098.56 121H1097.61L1099.19 110.976H1100.14L1099.44 115.47H1104.77L1105.49 110.976H1106.44L1104.86 121H1103.91L1104.62 116.352H1099.3L1098.56 121ZM1108.92 112.348C1108.57 112.348 1108.32 112.096 1108.32 111.76C1108.32 111.326 1108.7 110.934 1109.13 110.934C1109.47 110.934 1109.72 111.186 1109.72 111.522C1109.72 111.956 1109.36 112.348 1108.92 112.348ZM1107.1 121L1108.17 114.224H1109.09L1108.01 121H1107.1ZM1110.06 117.976C1110.06 115.778 1111.65 114.042 1113.68 114.042C1114.8 114.042 1115.66 114.616 1115.94 115.568L1116.26 114.224H1117.08L1116.05 120.804C1115.7 122.96 1114.51 124.108 1112.58 124.108C1110.83 124.108 1109.65 123.072 1109.59 121.504H1110.52C1110.57 122.582 1111.37 123.268 1112.59 123.268C1113.98 123.268 1114.87 122.428 1115.11 120.888L1115.38 119.306C1114.79 120.244 1113.85 120.79 1112.76 120.79C1111.16 120.79 1110.06 119.642 1110.06 117.976ZM1110.99 117.934C1110.99 119.166 1111.74 119.964 1112.88 119.964C1114.44 119.964 1115.63 118.634 1115.63 116.856C1115.63 115.624 1114.9 114.868 1113.71 114.868C1112.18 114.868 1110.99 116.226 1110.99 117.934ZM1118.94 121H1118.03L1119.64 110.794H1120.55L1119.82 115.442C1120.45 114.504 1121.22 114.042 1122.25 114.042C1123.81 114.042 1124.72 115.19 1124.45 116.87L1123.79 121H1122.88L1123.51 117.066C1123.74 115.652 1123.19 114.882 1122.02 114.882C1120.7 114.882 1119.75 115.876 1119.5 117.472L1118.94 121ZM1132.3 110.976L1130.71 121H1129.76L1131.34 110.976H1132.3ZM1133.87 121H1132.96L1134.02 114.224H1134.82L1134.75 115.442C1135.38 114.504 1136.15 114.042 1137.18 114.042C1138.74 114.042 1139.65 115.19 1139.38 116.87L1138.74 121H1137.81L1138.44 117.066C1138.68 115.652 1138.14 114.882 1136.95 114.882C1135.63 114.882 1134.68 115.876 1134.43 117.472L1133.87 121ZM1142.15 121H1141.23L1142.18 115.008H1140.86L1140.99 114.224H1142.31L1142.64 112.082H1143.55L1143.22 114.224H1144.55L1144.42 115.008H1143.09L1142.15 121ZM1147.57 121.168C1145.85 121.168 1144.67 119.936 1144.67 118.158C1144.67 115.834 1146.26 114.042 1148.3 114.042C1150.16 114.042 1151.27 115.428 1150.97 117.262L1150.9 117.724H1145.6C1145.58 117.85 1145.58 117.976 1145.58 118.116C1145.58 119.488 1146.37 120.37 1147.59 120.37C1148.58 120.37 1149.43 119.852 1149.77 118.984H1150.69C1150.25 120.342 1149.01 121.168 1147.57 121.168ZM1148.27 114.84C1147.07 114.84 1146.07 115.75 1145.72 117.052H1150.08C1150.29 115.722 1149.53 114.84 1148.27 114.84ZM1156.43 114.14L1156.3 114.966H1155.77C1154.58 114.966 1153.64 115.806 1153.45 117.094L1152.82 121H1151.91L1152.97 114.224H1153.8L1153.7 115.358C1154.08 114.588 1154.86 114.07 1155.77 114.07C1155.99 114.07 1156.22 114.098 1156.43 114.14ZM1159.27 121.168C1157.55 121.168 1156.38 119.936 1156.38 118.158C1156.38 115.834 1157.96 114.042 1160 114.042C1161.86 114.042 1162.97 115.428 1162.68 117.262L1162.61 117.724H1157.3C1157.29 117.85 1157.29 117.976 1157.29 118.116C1157.29 119.488 1158.07 120.37 1159.29 120.37C1160.28 120.37 1161.14 119.852 1161.47 118.984H1162.4C1161.95 120.342 1160.72 121.168 1159.27 121.168ZM1159.97 114.84C1158.77 114.84 1157.78 115.75 1157.43 117.052H1161.78C1161.99 115.722 1161.23 114.84 1159.97 114.84ZM1163.29 119.152H1164.21C1164.21 119.894 1164.83 120.398 1165.74 120.398C1166.7 120.398 1167.36 119.908 1167.36 119.166C1167.36 118.634 1167.12 118.354 1166.48 118.116L1165.37 117.738C1164.43 117.416 1163.94 116.842 1163.94 115.988C1163.94 114.826 1164.91 114.042 1166.37 114.042C1167.78 114.042 1168.63 114.826 1168.63 116.086H1167.71C1167.68 115.218 1167.23 114.812 1166.31 114.812C1165.41 114.812 1164.84 115.246 1164.84 115.946C1164.84 116.464 1165.13 116.8 1165.78 117.038L1166.86 117.416C1167.85 117.766 1168.27 118.27 1168.27 119.124C1168.27 120.342 1167.23 121.168 1165.71 121.168C1164.28 121.168 1163.29 120.342 1163.29 119.152ZM1170.66 121H1169.73L1170.69 115.008H1169.37L1169.5 114.224H1170.81L1171.15 112.082H1172.06L1171.72 114.224H1173.05L1172.93 115.008H1171.6L1170.66 121Z" fill="#CD3236"/>
<rect x="1093.78" y="154" width="116" height="64" rx="8" fill="#F3D0CD"/>
<path d="M1129.72 176.356H1126.42V181H1124.66V167.986H1129.72C1132.27 167.986 1133.91 169.66 1133.91 172.162C1133.91 174.592 1132.26 176.356 1129.72 176.356ZM1129.41 169.57H1126.42V174.772H1129.34C1131.09 174.772 1132.06 173.746 1132.06 172.144C1132.06 170.506 1131.07 169.57 1129.41 169.57ZM1140.66 172.126V173.674H1139.91C1138.3 173.674 1137.31 174.646 1137.31 176.338V181H1135.62V172.216H1137.21L1137.31 173.548C1137.67 172.63 1138.56 172.018 1139.76 172.018C1140.07 172.018 1140.32 172.054 1140.66 172.126ZM1141.36 176.59C1141.36 173.872 1143.3 171.964 1145.95 171.964C1148.57 171.964 1150.52 173.872 1150.52 176.59C1150.52 179.308 1148.57 181.216 1145.95 181.216C1143.3 181.216 1141.36 179.308 1141.36 176.59ZM1143.07 176.59C1143.07 178.426 1144.24 179.704 1145.95 179.704C1147.64 179.704 1148.83 178.426 1148.83 176.59C1148.83 174.754 1147.64 173.476 1145.95 173.476C1144.24 173.476 1143.07 174.754 1143.07 176.59ZM1153.24 170.11C1152.61 170.11 1152.12 169.606 1152.12 168.994C1152.12 168.364 1152.61 167.878 1153.24 167.878C1153.83 167.878 1154.35 168.364 1154.35 168.994C1154.35 169.606 1153.83 170.11 1153.24 170.11ZM1150.16 184.996L1150.45 183.466C1150.79 183.556 1150.99 183.592 1151.26 183.592C1152.07 183.592 1152.39 183.124 1152.39 182.134V172.198H1154.08V182.296C1154.08 184.06 1153.11 185.158 1151.4 185.158C1150.95 185.158 1150.66 185.14 1150.16 184.996ZM1160.34 181.216C1157.75 181.216 1155.96 179.344 1155.96 176.608C1155.96 173.854 1157.71 171.946 1160.27 171.946C1162.77 171.946 1164.41 173.674 1164.41 176.284V176.914L1157.6 176.932C1157.73 178.786 1158.7 179.812 1160.37 179.812C1161.69 179.812 1162.55 179.272 1162.84 178.264H1164.42C1163.99 180.154 1162.52 181.216 1160.34 181.216ZM1160.27 173.368C1158.79 173.368 1157.85 174.25 1157.64 175.798H1162.71C1162.71 174.34 1161.76 173.368 1160.27 173.368ZM1165.72 176.608C1165.72 173.854 1167.47 171.946 1170.04 171.946C1172.25 171.946 1173.8 173.206 1174.11 175.168H1172.42C1172.13 174.052 1171.23 173.458 1170.09 173.458C1168.49 173.458 1167.39 174.682 1167.39 176.59C1167.39 178.48 1168.42 179.704 1170.02 179.704C1171.23 179.704 1172.13 179.074 1172.43 178.03H1174.13C1173.78 179.938 1172.15 181.216 1170.02 181.216C1167.43 181.216 1165.72 179.38 1165.72 176.608ZM1178.4 181H1176.7V173.62H1174.98V172.198H1176.7V169.444H1178.4V172.198H1180.12V173.62H1178.4V181ZM1118.92 205H1117.19V191.986H1118.92L1123.4 202.93L1127.88 191.986H1129.65V205H1127.92V199.852C1127.92 197.422 1127.94 196.54 1128.03 195.622L1124.23 205H1122.57L1118.79 195.658C1118.88 196.288 1118.92 197.62 1118.92 199.438V205ZM1134.96 205.216C1133.07 205.216 1131.96 204.154 1131.96 202.552C1131.96 200.932 1133.16 199.924 1135.23 199.762L1138 199.546V199.294C1138 197.818 1137.12 197.296 1135.93 197.296C1134.51 197.296 1133.7 197.926 1133.7 198.988H1132.23C1132.23 197.152 1133.74 195.946 1136.01 195.946C1138.18 195.946 1139.66 197.098 1139.66 199.474V205H1138.22L1138.04 203.578C1137.59 204.586 1136.38 205.216 1134.96 205.216ZM1135.45 203.902C1137.05 203.902 1138.02 202.858 1138.02 201.202V200.734L1135.77 200.914C1134.28 201.058 1133.67 201.634 1133.67 202.498C1133.67 203.434 1134.35 203.902 1135.45 203.902ZM1143.7 205H1142V196.198H1143.53L1143.71 197.548C1144.27 196.54 1145.39 195.946 1146.63 195.946C1148.95 195.946 1150.01 197.368 1150.01 199.618V205H1148.32V199.996C1148.32 198.214 1147.49 197.494 1146.2 197.494C1144.61 197.494 1143.7 198.628 1143.7 200.338V205ZM1154.93 205.216C1153.04 205.216 1151.92 204.154 1151.92 202.552C1151.92 200.932 1153.13 199.924 1155.2 199.762L1157.97 199.546V199.294C1157.97 197.818 1157.09 197.296 1155.9 197.296C1154.48 197.296 1153.67 197.926 1153.67 198.988H1152.19C1152.19 197.152 1153.71 195.946 1155.97 195.946C1158.15 195.946 1159.63 197.098 1159.63 199.474V205H1158.19L1158.01 203.578C1157.56 204.586 1156.35 205.216 1154.93 205.216ZM1155.42 203.902C1157.02 203.902 1157.99 202.858 1157.99 201.202V200.734L1155.74 200.914C1154.25 201.058 1153.63 201.634 1153.63 202.498C1153.63 203.434 1154.32 203.902 1155.42 203.902ZM1161.41 200.374C1161.41 197.89 1163.02 195.946 1165.57 195.946C1166.99 195.946 1168.09 196.594 1168.65 197.692L1168.78 196.198H1170.29V204.64C1170.29 207.412 1168.58 209.176 1165.88 209.176C1163.48 209.176 1161.85 207.826 1161.52 205.594H1163.21C1163.43 206.89 1164.4 207.646 1165.88 207.646C1167.53 207.646 1168.61 206.566 1168.61 204.892V203.128C1168.04 204.154 1166.89 204.766 1165.5 204.766C1163 204.766 1161.41 202.84 1161.41 200.374ZM1163.11 200.338C1163.11 201.994 1164.13 203.29 1165.79 203.29C1167.5 203.29 1168.54 202.066 1168.54 200.338C1168.54 198.646 1167.53 197.422 1165.81 197.422C1164.11 197.422 1163.11 198.718 1163.11 200.338ZM1176.53 205.216C1173.94 205.216 1172.15 203.344 1172.15 200.608C1172.15 197.854 1173.9 195.946 1176.46 195.946C1178.96 195.946 1180.6 197.674 1180.6 200.284V200.914L1173.79 200.932C1173.92 202.786 1174.89 203.812 1176.56 203.812C1177.88 203.812 1178.74 203.272 1179.03 202.264H1180.61C1180.18 204.154 1178.71 205.216 1176.53 205.216ZM1176.46 197.368C1174.98 197.368 1174.04 198.25 1173.83 199.798H1178.9C1178.9 198.34 1177.95 197.368 1176.46 197.368ZM1187.53 196.126V197.674H1186.77C1185.17 197.674 1184.18 198.646 1184.18 200.338V205H1182.49V196.216H1184.07L1184.18 197.548C1184.54 196.63 1185.42 196.018 1186.63 196.018C1186.93 196.018 1187.18 196.054 1187.53 196.126Z" fill="#EA4D42"/>
<rect x="983.783" y="154" width="94" height="64" rx="8" fill="#F3D0CD"/>
<path d="M1002.35 176.374V167.986H1004.11V176.266C1004.11 178.354 1005.26 179.506 1007.33 179.506C1009.39 179.506 1010.52 178.336 1010.52 176.266V167.986H1012.3V176.374C1012.3 179.362 1010.39 181.216 1007.33 181.216C1004.26 181.216 1002.35 179.38 1002.35 176.374ZM1017 181H1015.24V167.986H1020.15C1022.94 167.986 1024.6 169.462 1024.6 171.892C1024.6 173.692 1023.7 174.988 1022.08 175.51L1024.72 181H1022.76L1020.33 175.852H1017V181ZM1017 169.57V174.286H1020.17C1021.81 174.286 1022.74 173.404 1022.74 171.91C1022.74 170.398 1021.77 169.57 1020.15 169.57H1017ZM1025.74 176.986V175.474H1031.23V176.986H1025.74ZM1035.6 181H1033.87V167.986H1035.6L1040.08 178.93L1044.56 167.986H1046.32V181H1044.6V175.852C1044.6 173.422 1044.61 172.54 1044.7 171.622L1040.91 181H1039.25L1035.47 171.658C1035.56 172.288 1035.6 173.62 1035.6 175.438V181ZM1049.26 176.374V167.986H1051.03V176.266C1051.03 178.354 1052.18 179.506 1054.25 179.506C1056.3 179.506 1057.44 178.336 1057.44 176.266V167.986H1059.22V176.374C1059.22 179.362 1057.31 181.216 1054.25 181.216C1051.17 181.216 1049.26 179.38 1049.26 176.374ZM1018.76 205.198C1015.06 205.198 1012.59 202.534 1012.59 198.502C1012.59 194.488 1015.13 191.77 1018.85 191.77C1021.79 191.77 1024.04 193.516 1024.52 196.18H1022.63C1022.15 194.488 1020.69 193.462 1018.8 193.462C1016.17 193.462 1014.44 195.442 1014.44 198.484C1014.44 201.526 1016.17 203.506 1018.8 203.506C1020.71 203.506 1022.22 202.48 1022.71 200.878H1024.58C1024.02 203.47 1021.7 205.198 1018.76 205.198ZM1034.68 205H1026.74V191.986H1034.68V193.606H1028.5V197.674H1034.07V199.24H1028.5V203.362H1034.68V205ZM1048.97 198.484C1048.97 202.444 1046.38 205.216 1042.69 205.216C1039.02 205.216 1036.46 202.444 1036.46 198.484C1036.46 194.542 1039.03 191.752 1042.71 191.752C1046.4 191.752 1048.97 194.524 1048.97 198.484ZM1047.12 198.484C1047.12 195.46 1045.35 193.462 1042.71 193.462C1040.06 193.462 1038.31 195.46 1038.31 198.484C1038.31 201.508 1040.06 203.524 1042.71 203.524C1045.35 203.524 1047.12 201.49 1047.12 198.484Z" fill="#EA4D42"/>
<path d="M913.84 233.313C912.83 233.514 911.83 233.741 910.84 233.993V64.0381H607.783V272H870.302C869.98 272.989 869.684 273.989 869.415 275H604.783V61.0381H913.84V233.313Z" fill="#488DF5"/>
<path d="M911.783 232C883.994 241.333 877.943 252.278 867.783 274" stroke="#488DF5" stroke-width="3"/>
<path d="M694.815 87.842V94.754L700.143 87.842H702.861L698.505 93.458L702.915 101H700.251L696.993 95.402L694.815 98.192V101H692.511V87.842H694.815ZM712.812 101H704.64V87.842H712.812V89.966H706.944V93.35H712.2V95.384H706.944V98.876H712.812V101ZM723.482 101H715.31V87.842H723.482V89.966H717.614V93.35H722.87V95.384H717.614V98.876H723.482V101ZM731.181 96.464H728.283V101H725.979V87.842H731.181C733.827 87.842 735.537 89.57 735.537 92.144C735.537 94.682 733.809 96.464 731.181 96.464ZM730.731 89.894H728.283V94.412H730.695C732.279 94.412 733.125 93.566 733.125 92.126C733.125 90.686 732.261 89.894 730.731 89.894ZM741.571 91.514C741.571 89.21 743.479 87.608 746.251 87.608C748.915 87.608 750.607 89.084 750.679 91.46H748.375C748.321 90.326 747.511 89.66 746.215 89.66C744.793 89.66 743.875 90.344 743.875 91.442C743.875 92.378 744.379 92.9 745.477 93.152L747.547 93.602C749.797 94.088 750.895 95.24 750.895 97.202C750.895 99.65 748.987 101.234 746.089 101.234C743.281 101.234 741.445 99.74 741.391 97.382H743.695C743.713 98.498 744.613 99.164 746.089 99.164C747.619 99.164 748.591 98.498 748.591 97.4C748.591 96.518 748.141 95.996 747.061 95.762L744.973 95.294C742.741 94.808 741.571 93.53 741.571 91.514ZM754.113 101H751.719L756.471 87.842H758.829L763.581 101H761.151L760.089 97.958H755.175L754.113 101ZM757.353 91.766L755.859 96.014H759.423L757.911 91.766C757.803 91.424 757.677 91.028 757.641 90.758C757.587 91.01 757.479 91.406 757.353 91.766ZM762.902 89.966V87.842H772.91V89.966H769.058V101H766.754V89.966H762.902ZM776.975 87.842V101H774.671V87.842H776.975ZM779.136 91.514C779.136 89.21 781.044 87.608 783.816 87.608C786.48 87.608 788.172 89.084 788.244 91.46H785.94C785.886 90.326 785.076 89.66 783.78 89.66C782.358 89.66 781.44 90.344 781.44 91.442C781.44 92.378 781.944 92.9 783.042 93.152L785.112 93.602C787.362 94.088 788.46 95.24 788.46 97.202C788.46 99.65 786.552 101.234 783.654 101.234C780.846 101.234 779.01 99.74 778.956 97.382H781.26C781.278 98.498 782.178 99.164 783.654 99.164C785.184 99.164 786.156 98.498 786.156 97.4C786.156 96.518 785.706 95.996 784.626 95.762L782.538 95.294C780.306 94.808 779.136 93.53 779.136 91.514ZM797.744 95.618H792.848V101H790.544V87.842H798.68V89.966H792.848V93.548H797.744V95.618ZM803.061 87.842V101H800.757V87.842H803.061ZM814.15 101H805.978V87.842H814.15V89.966H808.282V93.35H813.538V95.384H808.282V98.876H814.15V101ZM821.381 101H816.647V87.842H821.255C825.143 87.842 827.825 90.524 827.825 94.448C827.825 98.318 825.197 101 821.381 101ZM821.039 89.966H818.951V98.876H821.165C823.793 98.876 825.395 97.184 825.395 94.448C825.395 91.658 823.757 89.966 821.039 89.966Z" fill="#1066D3"/>
<path d="M686.874 121H685.922L687.504 110.976H688.456L687.756 115.47H693.09L693.804 110.976H694.756L693.174 121H692.222L692.936 116.352H687.616L686.874 121ZM697.239 112.348C696.889 112.348 696.637 112.096 696.637 111.76C696.637 111.326 697.015 110.934 697.449 110.934C697.785 110.934 698.037 111.186 698.037 111.522C698.037 111.956 697.673 112.348 697.239 112.348ZM695.419 121L696.483 114.224H697.407L696.329 121H695.419ZM698.373 117.976C698.373 115.778 699.969 114.042 701.999 114.042C703.119 114.042 703.973 114.616 704.253 115.568L704.575 114.224H705.401L704.365 120.804C704.015 122.96 702.825 124.108 700.893 124.108C699.143 124.108 697.967 123.072 697.911 121.504H698.835C698.891 122.582 699.689 123.268 700.907 123.268C702.293 123.268 703.189 122.428 703.427 120.888L703.693 119.306C703.105 120.244 702.167 120.79 701.075 120.79C699.479 120.79 698.373 119.642 698.373 117.976ZM699.311 117.934C699.311 119.166 700.053 119.964 701.201 119.964C702.755 119.964 703.945 118.634 703.945 116.856C703.945 115.624 703.217 114.868 702.027 114.868C700.501 114.868 699.311 116.226 699.311 117.934ZM707.253 121H706.343L707.953 110.794H708.863L708.135 115.442C708.765 114.504 709.535 114.042 710.571 114.042C712.125 114.042 713.035 115.19 712.769 116.87L712.111 121H711.201L711.831 117.066C712.055 115.652 711.509 114.882 710.333 114.882C709.017 114.882 708.065 115.876 707.813 117.472L707.253 121ZM722.279 117.318H719.619L719.031 121H718.079L719.661 110.976H723.119C724.827 110.976 726.003 112.11 726.003 113.762C726.003 115.904 724.533 117.318 722.279 117.318ZM722.923 111.844H720.473L719.745 116.45H722.237C723.973 116.45 725.023 115.442 725.023 113.804C725.023 112.628 724.197 111.844 722.923 111.844ZM726.126 118.088C726.126 115.862 727.862 114.042 729.99 114.042C731.768 114.042 732.972 115.302 732.972 117.122C732.972 119.362 731.236 121.168 729.122 121.168C727.344 121.168 726.126 119.922 726.126 118.088ZM727.064 118.046C727.064 119.46 727.89 120.342 729.206 120.342C730.76 120.342 732.034 118.914 732.034 117.164C732.034 115.75 731.208 114.868 729.892 114.868C728.338 114.868 727.064 116.296 727.064 118.046ZM734.991 121L733.857 114.224H734.781L735.439 118.368C735.495 118.732 735.565 119.236 735.621 119.824C735.817 119.292 735.957 118.97 736.237 118.368L738.239 114.224H739.191L739.835 118.368C739.891 118.732 739.961 119.404 740.003 119.81C740.227 119.278 740.451 118.732 740.633 118.368L742.635 114.224H743.615L740.297 121H739.415L738.715 116.674C738.645 116.268 738.575 115.708 738.561 115.344C738.365 115.834 738.155 116.268 737.973 116.688L735.901 121H734.991ZM746.401 121.168C744.679 121.168 743.503 119.936 743.503 118.158C743.503 115.834 745.085 114.042 747.129 114.042C748.991 114.042 750.097 115.428 749.803 117.262L749.733 117.724H744.427C744.413 117.85 744.413 117.976 744.413 118.116C744.413 119.488 745.197 120.37 746.415 120.37C747.409 120.37 748.263 119.852 748.599 118.984H749.523C749.075 120.342 747.843 121.168 746.401 121.168ZM747.101 114.84C745.897 114.84 744.903 115.75 744.553 117.052H748.907C749.117 115.722 748.361 114.84 747.101 114.84ZM755.258 114.14L755.132 114.966H754.6C753.41 114.966 752.472 115.806 752.276 117.094L751.646 121H750.736L751.8 114.224H752.626L752.528 115.358C752.906 114.588 753.69 114.07 754.6 114.07C754.824 114.07 755.048 114.098 755.258 114.14ZM756.149 120.286C756.149 121.196 755.337 122.12 754.385 122.26L754.469 121.756C754.987 121.644 755.393 121.266 755.435 120.916C755.351 120.972 755.239 121.014 755.071 121.014C754.735 121.014 754.469 120.776 754.469 120.412C754.469 119.894 754.903 119.446 755.421 119.446C755.841 119.446 756.149 119.754 756.149 120.286ZM764.581 110.976L763.139 120.104H767.661L767.521 121H762.047L763.629 110.976H764.581ZM768.687 118.088C768.687 115.862 770.423 114.042 772.551 114.042C774.329 114.042 775.533 115.302 775.533 117.122C775.533 119.362 773.797 121.168 771.683 121.168C769.905 121.168 768.687 119.922 768.687 118.088ZM769.625 118.046C769.625 119.46 770.451 120.342 771.767 120.342C773.321 120.342 774.595 118.914 774.595 117.164C774.595 115.75 773.769 114.868 772.453 114.868C770.899 114.868 769.625 116.296 769.625 118.046ZM777.551 121L776.417 114.224H777.341L777.999 118.368C778.055 118.732 778.125 119.236 778.181 119.824C778.377 119.292 778.517 118.97 778.797 118.368L780.799 114.224H781.751L782.395 118.368C782.451 118.732 782.521 119.404 782.563 119.81C782.787 119.278 783.011 118.732 783.193 118.368L785.195 114.224H786.175L782.857 121H781.975L781.275 116.674C781.205 116.268 781.135 115.708 781.121 115.344C780.925 115.834 780.715 116.268 780.533 116.688L778.461 121H777.551ZM792.855 110.976L791.273 121H790.321L791.903 110.976H792.855ZM794.425 121H793.515L794.579 114.224H795.377L795.307 115.442C795.937 114.504 796.707 114.042 797.743 114.042C799.297 114.042 800.207 115.19 799.941 116.87L799.297 121H798.373L799.003 117.066C799.241 115.652 798.695 114.882 797.505 114.882C796.189 114.882 795.237 115.876 794.985 117.472L794.425 121ZM802.71 121H801.786L802.738 115.008H801.422L801.548 114.224H802.864L803.2 112.082H804.11L803.774 114.224H805.104L804.978 115.008H803.648L802.71 121ZM808.13 121.168C806.408 121.168 805.232 119.936 805.232 118.158C805.232 115.834 806.814 114.042 808.858 114.042C810.72 114.042 811.826 115.428 811.532 117.262L811.462 117.724H806.156C806.142 117.85 806.142 117.976 806.142 118.116C806.142 119.488 806.926 120.37 808.144 120.37C809.138 120.37 809.992 119.852 810.328 118.984H811.252C810.804 120.342 809.572 121.168 808.13 121.168ZM808.83 114.84C807.626 114.84 806.632 115.75 806.282 117.052H810.636C810.846 115.722 810.09 114.84 808.83 114.84ZM816.986 114.14L816.86 114.966H816.328C815.138 114.966 814.2 115.806 814.004 117.094L813.374 121H812.464L813.528 114.224H814.354L814.256 115.358C814.634 114.588 815.418 114.07 816.328 114.07C816.552 114.07 816.776 114.098 816.986 114.14ZM819.833 121.168C818.111 121.168 816.935 119.936 816.935 118.158C816.935 115.834 818.517 114.042 820.561 114.042C822.423 114.042 823.529 115.428 823.235 117.262L823.165 117.724H817.859C817.845 117.85 817.845 117.976 817.845 118.116C817.845 119.488 818.629 120.37 819.847 120.37C820.841 120.37 821.695 119.852 822.031 118.984H822.955C822.507 120.342 821.275 121.168 819.833 121.168ZM820.533 114.84C819.329 114.84 818.335 115.75 817.985 117.052H822.339C822.549 115.722 821.793 114.84 820.533 114.84ZM823.845 119.152H824.769C824.769 119.894 825.385 120.398 826.295 120.398C827.261 120.398 827.919 119.908 827.919 119.166C827.919 118.634 827.681 118.354 827.037 118.116L825.931 117.738C824.993 117.416 824.503 116.842 824.503 115.988C824.503 114.826 825.469 114.042 826.925 114.042C828.339 114.042 829.193 114.826 829.193 116.086H828.269C828.241 115.218 827.793 114.812 826.869 114.812C825.973 114.812 825.399 115.246 825.399 115.946C825.399 116.464 825.693 116.8 826.337 117.038L827.415 117.416C828.409 117.766 828.829 118.27 828.829 119.124C828.829 120.342 827.793 121.168 826.267 121.168C824.839 121.168 823.845 120.342 823.845 119.152ZM831.216 121H830.292L831.244 115.008H829.928L830.054 114.224H831.37L831.706 112.082H832.616L832.28 114.224H833.61L833.484 115.008H832.154L831.216 121Z" fill="#1066D3"/>
<rect x="653" y="166" width="73" height="40" rx="8" fill="#E2E6FE"/>
<path d="M670.709 193V179.986H675.677C678.215 179.986 679.763 181.282 679.763 183.424C679.763 184.918 679.115 185.926 677.819 186.466C679.259 186.934 679.997 187.978 679.997 189.526C679.997 191.686 678.431 193 675.857 193H670.709ZM675.569 181.552H672.473V185.728H675.677C677.135 185.728 677.963 184.936 677.963 183.586C677.963 182.29 677.099 181.552 675.569 181.552ZM675.821 187.258H672.473V191.434H675.821C677.333 191.434 678.179 190.66 678.179 189.31C678.179 188.014 677.315 187.258 675.821 187.258ZM684.491 193.216C682.601 193.216 681.485 192.154 681.485 190.552C681.485 188.932 682.691 187.924 684.761 187.762L687.533 187.546V187.294C687.533 185.818 686.651 185.296 685.463 185.296C684.041 185.296 683.231 185.926 683.231 186.988H681.755C681.755 185.152 683.267 183.946 685.535 183.946C687.713 183.946 689.189 185.098 689.189 187.474V193H687.749L687.569 191.578C687.119 192.586 685.913 193.216 684.491 193.216ZM684.977 191.902C686.579 191.902 687.551 190.858 687.551 189.202V188.734L685.301 188.914C683.807 189.058 683.195 189.634 683.195 190.498C683.195 191.434 683.879 191.902 684.977 191.902ZM693.225 193H691.533V184.198H693.063L693.243 185.548C693.801 184.54 694.917 183.946 696.159 183.946C698.481 183.946 699.543 185.368 699.543 187.618V193H697.851V187.996C697.851 186.214 697.023 185.494 695.727 185.494C694.143 185.494 693.225 186.628 693.225 188.338V193ZM703.614 193H701.922V179.752H703.614V188.338L707.52 184.198H709.644L706.278 187.708L709.626 193H707.682L705.108 188.932L703.614 190.498V193Z" fill="#488DF5"/>
<rect x="742" y="166" width="125" height="40" rx="8" fill="#E2E6FE"/>
<path d="M765.199 193.198C761.491 193.198 759.025 190.534 759.025 186.502C759.025 182.488 761.563 179.77 765.289 179.77C768.223 179.77 770.473 181.516 770.959 184.18H769.069C768.583 182.488 767.125 181.462 765.235 181.462C762.607 181.462 760.879 183.442 760.879 186.484C760.879 189.526 762.607 191.506 765.235 191.506C767.143 191.506 768.655 190.48 769.141 188.878H771.013C770.455 191.47 768.133 193.198 765.199 193.198ZM772.312 188.59C772.312 185.872 774.256 183.964 776.902 183.964C779.53 183.964 781.474 185.872 781.474 188.59C781.474 191.308 779.53 193.216 776.902 193.216C774.256 193.216 772.312 191.308 772.312 188.59ZM774.022 188.59C774.022 190.426 775.192 191.704 776.902 191.704C778.594 191.704 779.782 190.426 779.782 188.59C779.782 186.754 778.594 185.476 776.902 185.476C775.192 185.476 774.022 186.754 774.022 188.59ZM785.039 193H783.347V184.198H784.859L785.021 185.35C785.471 184.522 786.407 183.946 787.649 183.946C789.017 183.946 789.989 184.63 790.439 185.728C790.853 184.63 791.915 183.946 793.283 183.946C795.299 183.946 796.523 185.206 796.523 187.24V193H794.867V187.654C794.867 186.268 794.093 185.476 792.905 185.476C791.627 185.476 790.781 186.376 790.781 187.78V193H789.107V187.636C789.107 186.25 788.351 185.494 787.163 185.494C785.885 185.494 785.039 186.376 785.039 187.78V193ZM798.869 196.942V184.198H800.399L800.525 185.782C801.119 184.576 802.307 183.946 803.711 183.946C806.231 183.946 807.797 185.836 807.797 188.536C807.797 191.218 806.321 193.234 803.711 193.234C802.307 193.234 801.137 192.64 800.561 191.56V196.942H798.869ZM800.579 188.608C800.579 190.408 801.623 191.704 803.351 191.704C805.079 191.704 806.105 190.408 806.105 188.608C806.105 186.79 805.079 185.494 803.351 185.494C801.623 185.494 800.579 186.772 800.579 188.608ZM813.46 193.216C810.868 193.216 809.086 191.344 809.086 188.608C809.086 185.854 810.832 183.946 813.388 183.946C815.89 183.946 817.527 185.674 817.527 188.284V188.914L810.724 188.932C810.85 190.786 811.822 191.812 813.496 191.812C814.81 191.812 815.674 191.272 815.962 190.264H817.546C817.114 192.154 815.638 193.216 813.46 193.216ZM813.388 185.368C811.912 185.368 810.976 186.25 810.76 187.798H815.836C815.836 186.34 814.882 185.368 813.388 185.368ZM821.813 193H820.121V185.62H818.393V184.198H820.121V181.444H821.813V184.198H823.541V185.62H821.813V193ZM825.888 182.11C825.276 182.11 824.772 181.606 824.772 180.994C824.772 180.364 825.276 179.878 825.888 179.878C826.5 179.878 827.004 180.364 827.004 180.994C827.004 181.606 826.5 182.11 825.888 182.11ZM825.06 193V184.198H826.752V193H825.06ZM831.692 193H830V185.62H828.272V184.198H830V181.444H831.692V184.198H833.42V185.62H831.692V193ZM834.275 188.59C834.275 185.872 836.219 183.964 838.865 183.964C841.493 183.964 843.437 185.872 843.437 188.59C843.437 191.308 841.493 193.216 838.865 193.216C836.219 193.216 834.275 191.308 834.275 188.59ZM835.985 188.59C835.985 190.426 837.155 191.704 838.865 191.704C840.557 191.704 841.745 190.426 841.745 188.59C841.745 186.754 840.557 185.476 838.865 185.476C837.155 185.476 835.985 186.754 835.985 188.59ZM850.35 184.126V185.674H849.594C847.992 185.674 847.002 186.646 847.002 188.338V193H845.31V184.216H846.894L847.002 185.548C847.362 184.63 848.244 184.018 849.45 184.018C849.756 184.018 850.008 184.054 850.35 184.126Z" fill="#488DF5"/>
<path d="M1250.78 513H940.783V345.966C941.792 345.826 942.792 345.66 943.783 345.467V510H1247.78V294H990.431C990.548 293.007 990.642 292.007 990.711 291H1250.78V513Z" fill="#FDC739"/>
<path d="M940.783 348C978.29 336.029 985.126 321.15 992.783 292" stroke="#FDC739" stroke-width="3"/>
<path d="M1027.46 340.976L1026.01 350.104H1030.54L1030.4 351H1024.92L1026.5 340.976H1027.46ZM1031.56 348.088C1031.56 345.862 1033.3 344.042 1035.43 344.042C1037.2 344.042 1038.41 345.302 1038.41 347.122C1038.41 349.362 1036.67 351.168 1034.56 351.168C1032.78 351.168 1031.56 349.922 1031.56 348.088ZM1032.5 348.046C1032.5 349.46 1033.33 350.342 1034.64 350.342C1036.2 350.342 1037.47 348.914 1037.47 347.164C1037.47 345.75 1036.64 344.868 1035.33 344.868C1033.77 344.868 1032.5 346.296 1032.5 348.046ZM1040.43 351L1039.29 344.224H1040.22L1040.87 348.368C1040.93 348.732 1041 349.236 1041.06 349.824C1041.25 349.292 1041.39 348.97 1041.67 348.368L1043.67 344.224H1044.63L1045.27 348.368C1045.33 348.732 1045.4 349.404 1045.44 349.81C1045.66 349.278 1045.89 348.732 1046.07 348.368L1048.07 344.224H1049.05L1045.73 351H1044.85L1044.15 346.674C1044.08 346.268 1044.01 345.708 1044 345.344C1043.8 345.834 1043.59 346.268 1043.41 346.688L1041.34 351H1040.43ZM1057.4 347.318H1054.74L1054.15 351H1053.2L1054.78 340.976H1058.24C1059.94 340.976 1061.12 342.11 1061.12 343.762C1061.12 345.904 1059.65 347.318 1057.4 347.318ZM1058.04 341.844H1055.59L1054.86 346.45H1057.35C1059.09 346.45 1060.14 345.442 1060.14 343.804C1060.14 342.628 1059.31 341.844 1058.04 341.844ZM1061.24 348.088C1061.24 345.862 1062.98 344.042 1065.11 344.042C1066.89 344.042 1068.09 345.302 1068.09 347.122C1068.09 349.362 1066.35 351.168 1064.24 351.168C1062.46 351.168 1061.24 349.922 1061.24 348.088ZM1062.18 348.046C1062.18 349.46 1063.01 350.342 1064.32 350.342C1065.88 350.342 1067.15 348.914 1067.15 347.164C1067.15 345.75 1066.33 344.868 1065.01 344.868C1063.46 344.868 1062.18 346.296 1062.18 348.046ZM1070.11 351L1068.97 344.224H1069.9L1070.56 348.368C1070.61 348.732 1070.68 349.236 1070.74 349.824C1070.93 349.292 1071.07 348.97 1071.35 348.368L1073.36 344.224H1074.31L1074.95 348.368C1075.01 348.732 1075.08 349.404 1075.12 349.81C1075.34 349.278 1075.57 348.732 1075.75 348.368L1077.75 344.224H1078.73L1075.41 351H1074.53L1073.83 346.674C1073.76 346.268 1073.69 345.708 1073.68 345.344C1073.48 345.834 1073.27 346.268 1073.09 346.688L1071.02 351H1070.11ZM1081.52 351.168C1079.8 351.168 1078.62 349.936 1078.62 348.158C1078.62 345.834 1080.2 344.042 1082.25 344.042C1084.11 344.042 1085.21 345.428 1084.92 347.262L1084.85 347.724H1079.54C1079.53 347.85 1079.53 347.976 1079.53 348.116C1079.53 349.488 1080.31 350.37 1081.53 350.37C1082.53 350.37 1083.38 349.852 1083.72 348.984H1084.64C1084.19 350.342 1082.96 351.168 1081.52 351.168ZM1082.22 344.84C1081.01 344.84 1080.02 345.75 1079.67 347.052H1084.02C1084.23 345.722 1083.48 344.84 1082.22 344.84ZM1090.37 344.14L1090.25 344.966H1089.72C1088.53 344.966 1087.59 345.806 1087.39 347.094L1086.76 351H1085.85L1086.92 344.224H1087.74L1087.64 345.358C1088.02 344.588 1088.81 344.07 1089.72 344.07C1089.94 344.07 1090.16 344.098 1090.37 344.14ZM1091.27 350.286C1091.27 351.196 1090.45 352.12 1089.5 352.26L1089.59 351.756C1090.1 351.644 1090.51 351.266 1090.55 350.916C1090.47 350.972 1090.36 351.014 1090.19 351.014C1089.85 351.014 1089.59 350.776 1089.59 350.412C1089.59 349.894 1090.02 349.446 1090.54 349.446C1090.96 349.446 1091.27 349.754 1091.27 350.286ZM1098.12 351H1097.16L1098.75 340.976H1099.7L1099 345.47H1104.33L1105.05 340.976H1106L1104.42 351H1103.46L1104.18 346.352H1098.86L1098.12 351ZM1108.48 342.348C1108.13 342.348 1107.88 342.096 1107.88 341.76C1107.88 341.326 1108.26 340.934 1108.69 340.934C1109.03 340.934 1109.28 341.186 1109.28 341.522C1109.28 341.956 1108.92 342.348 1108.48 342.348ZM1106.66 351L1107.73 344.224H1108.65L1107.57 351H1106.66ZM1109.62 347.976C1109.62 345.778 1111.21 344.042 1113.24 344.042C1114.36 344.042 1115.22 344.616 1115.5 345.568L1115.82 344.224H1116.64L1115.61 350.804C1115.26 352.96 1114.07 354.108 1112.14 354.108C1110.39 354.108 1109.21 353.072 1109.15 351.504H1110.08C1110.13 352.582 1110.93 353.268 1112.15 353.268C1113.54 353.268 1114.43 352.428 1114.67 350.888L1114.94 349.306C1114.35 350.244 1113.41 350.79 1112.32 350.79C1110.72 350.79 1109.62 349.642 1109.62 347.976ZM1110.55 347.934C1110.55 349.166 1111.3 349.964 1112.44 349.964C1114 349.964 1115.19 348.634 1115.19 346.856C1115.19 345.624 1114.46 344.868 1113.27 344.868C1111.74 344.868 1110.55 346.226 1110.55 347.934ZM1118.5 351H1117.59L1119.2 340.794H1120.11L1119.38 345.442C1120.01 344.504 1120.78 344.042 1121.81 344.042C1123.37 344.042 1124.28 345.19 1124.01 346.87L1123.35 351H1122.44L1123.07 347.066C1123.3 345.652 1122.75 344.882 1121.58 344.882C1120.26 344.882 1119.31 345.876 1119.06 347.472L1118.5 351ZM1131.85 340.976L1130.27 351H1129.32L1130.9 340.976H1131.85ZM1133.43 351H1132.52L1133.58 344.224H1134.38L1134.31 345.442C1134.94 344.504 1135.71 344.042 1136.74 344.042C1138.3 344.042 1139.21 345.19 1138.94 346.87L1138.3 351H1137.37L1138 347.066C1138.24 345.652 1137.7 344.882 1136.51 344.882C1135.19 344.882 1134.24 345.876 1133.99 347.472L1133.43 351ZM1141.71 351H1140.79L1141.74 345.008H1140.42L1140.55 344.224H1141.86L1142.2 342.082H1143.11L1142.77 344.224H1144.1L1143.98 345.008H1142.65L1141.71 351ZM1147.13 351.168C1145.41 351.168 1144.23 349.936 1144.23 348.158C1144.23 345.834 1145.81 344.042 1147.86 344.042C1149.72 344.042 1150.83 345.428 1150.53 347.262L1150.46 347.724H1145.16C1145.14 347.85 1145.14 347.976 1145.14 348.116C1145.14 349.488 1145.93 350.37 1147.14 350.37C1148.14 350.37 1148.99 349.852 1149.33 348.984H1150.25C1149.8 350.342 1148.57 351.168 1147.13 351.168ZM1147.83 344.84C1146.63 344.84 1145.63 345.75 1145.28 347.052H1149.64C1149.85 345.722 1149.09 344.84 1147.83 344.84ZM1155.99 344.14L1155.86 344.966H1155.33C1154.14 344.966 1153.2 345.806 1153 347.094L1152.37 351H1151.46L1152.53 344.224H1153.35L1153.26 345.358C1153.63 344.588 1154.42 344.07 1155.33 344.07C1155.55 344.07 1155.78 344.098 1155.99 344.14ZM1158.83 351.168C1157.11 351.168 1155.93 349.936 1155.93 348.158C1155.93 345.834 1157.52 344.042 1159.56 344.042C1161.42 344.042 1162.53 345.428 1162.23 347.262L1162.16 347.724H1156.86C1156.84 347.85 1156.84 347.976 1156.84 348.116C1156.84 349.488 1157.63 350.37 1158.85 350.37C1159.84 350.37 1160.69 349.852 1161.03 348.984H1161.95C1161.51 350.342 1160.27 351.168 1158.83 351.168ZM1159.53 344.84C1158.33 344.84 1157.33 345.75 1156.98 347.052H1161.34C1161.55 345.722 1160.79 344.84 1159.53 344.84ZM1162.85 349.152H1163.77C1163.77 349.894 1164.39 350.398 1165.3 350.398C1166.26 350.398 1166.92 349.908 1166.92 349.166C1166.92 348.634 1166.68 348.354 1166.04 348.116L1164.93 347.738C1163.99 347.416 1163.5 346.842 1163.5 345.988C1163.5 344.826 1164.47 344.042 1165.93 344.042C1167.34 344.042 1168.19 344.826 1168.19 346.086H1167.27C1167.24 345.218 1166.79 344.812 1165.87 344.812C1164.97 344.812 1164.4 345.246 1164.4 345.946C1164.4 346.464 1164.69 346.8 1165.34 347.038L1166.42 347.416C1167.41 347.766 1167.83 348.27 1167.83 349.124C1167.83 350.342 1166.79 351.168 1165.27 351.168C1163.84 351.168 1162.85 350.342 1162.85 349.152ZM1170.22 351H1169.29L1170.24 345.008H1168.93L1169.05 344.224H1170.37L1170.71 342.082H1171.62L1171.28 344.224H1172.61L1172.48 345.008H1171.15L1170.22 351Z" fill="#F09227"/>
<path d="M1028.04 317.842V324.754L1033.37 317.842H1036.09L1031.73 323.458L1036.14 331H1033.48L1030.22 325.402L1028.04 328.192V331H1025.74V317.842H1028.04ZM1046.04 331H1037.87V317.842H1046.04V319.966H1040.17V323.35H1045.43V325.384H1040.17V328.876H1046.04V331ZM1056.71 331H1048.54V317.842H1056.71V319.966H1050.84V323.35H1056.1V325.384H1050.84V328.876H1056.71V331ZM1064.41 326.464H1061.51V331H1059.21V317.842H1064.41C1067.06 317.842 1068.77 319.57 1068.77 322.144C1068.77 324.682 1067.04 326.464 1064.41 326.464ZM1063.96 319.894H1061.51V324.412H1063.92C1065.51 324.412 1066.35 323.566 1066.35 322.126C1066.35 320.686 1065.49 319.894 1063.96 319.894ZM1077.86 317.842V331H1075.56V317.842H1077.86ZM1083.05 331H1080.78V317.842H1083.06L1089.24 327.166V317.842H1091.51V331H1089.24L1083.05 321.676V331ZM1101.62 325.618H1096.72V331H1094.42V317.842H1102.55V319.966H1096.72V323.548H1101.62V325.618ZM1116.64 324.412C1116.64 328.408 1114.01 331.216 1110.23 331.216C1106.47 331.216 1103.87 328.426 1103.87 324.412C1103.87 320.416 1106.48 317.608 1110.25 317.608C1114.01 317.608 1116.64 320.398 1116.64 324.412ZM1114.21 324.412C1114.21 321.604 1112.66 319.822 1110.25 319.822C1107.83 319.822 1106.29 321.604 1106.29 324.412C1106.29 327.22 1107.83 329.002 1110.25 329.002C1112.66 329.002 1114.21 327.184 1114.21 324.412ZM1121.09 331H1118.78V317.842H1123.8C1126.79 317.842 1128.54 319.354 1128.54 321.946C1128.54 323.71 1127.71 324.97 1126.16 325.6L1128.66 331H1126.14L1123.91 326.086H1121.09V331ZM1121.09 319.894V324.052H1123.8C1125.26 324.052 1126.13 323.278 1126.13 321.946C1126.13 320.632 1125.26 319.894 1123.8 319.894H1121.09ZM1133.07 331H1130.84V317.842H1133.07L1137.32 328.318L1141.57 317.842H1143.84V331H1141.6V326.95C1141.6 324.304 1141.6 323.53 1141.73 322.594L1138.38 331H1136.26L1132.93 322.612C1133.05 323.404 1133.07 324.646 1133.07 326.284V331ZM1154.92 331H1146.75V317.842H1154.92V319.966H1149.05V323.35H1154.31V325.384H1149.05V328.876H1154.92V331ZM1162.15 331H1157.42V317.842H1162.03C1165.91 317.842 1168.6 320.524 1168.6 324.448C1168.6 328.318 1165.97 331 1162.15 331ZM1161.81 319.966H1159.72V328.876H1161.94C1164.56 328.876 1166.17 327.184 1166.17 324.448C1166.17 321.658 1164.53 319.966 1161.81 319.966Z" fill="#F09227"/>
<rect x="1002.78" y="384" width="92" height="40" rx="8" fill="#FFF4C3"/>
<path d="M1024.31 411L1019.36 397.986H1021.25L1024.42 406.302C1024.71 407.04 1024.96 407.778 1025.23 408.75C1025.54 407.724 1025.84 406.86 1026.06 406.284L1029.21 397.986H1031.04L1026.15 411H1024.31ZM1033.27 400.11C1032.66 400.11 1032.16 399.606 1032.16 398.994C1032.16 398.364 1032.66 397.878 1033.27 397.878C1033.89 397.878 1034.39 398.364 1034.39 398.994C1034.39 399.606 1033.89 400.11 1033.27 400.11ZM1032.45 411V402.198H1034.14V411H1032.45ZM1035.88 408.444H1037.5C1037.5 409.344 1038.18 409.884 1039.3 409.884C1040.48 409.884 1041.17 409.398 1041.17 408.588C1041.17 407.994 1040.88 407.634 1039.96 407.4L1038.41 407.04C1036.85 406.662 1036.11 405.888 1036.11 404.592C1036.11 402.972 1037.48 401.946 1039.42 401.946C1041.35 401.946 1042.61 403.026 1042.64 404.7H1041.02C1040.99 403.818 1040.39 403.26 1039.37 403.26C1038.31 403.26 1037.71 403.728 1037.71 404.538C1037.71 405.132 1038.14 405.528 1039.01 405.744L1040.56 406.122C1042.05 406.482 1042.79 407.166 1042.79 408.48C1042.79 410.154 1041.35 411.216 1039.26 411.216C1037.19 411.216 1035.88 410.118 1035.88 408.444ZM1045.49 400.11C1044.88 400.11 1044.38 399.606 1044.38 398.994C1044.38 398.364 1044.88 397.878 1045.49 397.878C1046.1 397.878 1046.61 398.364 1046.61 398.994C1046.61 399.606 1046.1 400.11 1045.49 400.11ZM1044.66 411V402.198H1046.36V411H1044.66ZM1051.3 411H1049.6V403.62H1047.88V402.198H1049.6V399.444H1051.3V402.198H1053.02V403.62H1051.3V411ZM1053.88 406.59C1053.88 403.872 1055.82 401.964 1058.47 401.964C1061.1 401.964 1063.04 403.872 1063.04 406.59C1063.04 409.308 1061.1 411.216 1058.47 411.216C1055.82 411.216 1053.88 409.308 1053.88 406.59ZM1055.59 406.59C1055.59 408.426 1056.76 409.704 1058.47 409.704C1060.16 409.704 1061.35 408.426 1061.35 406.59C1061.35 404.754 1060.16 403.476 1058.47 403.476C1056.76 403.476 1055.59 404.754 1055.59 406.59ZM1069.95 402.126V403.674H1069.2C1067.6 403.674 1066.61 404.646 1066.61 406.338V411H1064.91V402.216H1066.5L1066.61 403.548C1066.97 402.63 1067.85 402.018 1069.05 402.018C1069.36 402.018 1069.61 402.054 1069.95 402.126ZM1070.82 408.444H1072.44C1072.44 409.344 1073.12 409.884 1074.24 409.884C1075.43 409.884 1076.11 409.398 1076.11 408.588C1076.11 407.994 1075.82 407.634 1074.91 407.4L1073.36 407.04C1071.79 406.662 1071.05 405.888 1071.05 404.592C1071.05 402.972 1072.42 401.946 1074.37 401.946C1076.29 401.946 1077.55 403.026 1077.59 404.7H1075.97C1075.93 403.818 1075.34 403.26 1074.31 403.26C1073.25 403.26 1072.66 403.728 1072.66 404.538C1072.66 405.132 1073.09 405.528 1073.95 405.744L1075.5 406.122C1076.99 406.482 1077.73 407.166 1077.73 408.48C1077.73 410.154 1076.29 411.216 1074.2 411.216C1072.13 411.216 1070.82 410.118 1070.82 408.444Z" fill="#F09227"/>
<rect x="1112.78" y="384" width="77" height="40" rx="8" fill="#FFF4C3"/>
<path d="M1129.57 401.496C1129.57 399.264 1131.37 397.752 1134.06 397.752C1136.54 397.752 1138.14 399.138 1138.29 401.388H1136.5C1136.41 400.092 1135.5 399.336 1134.04 399.336C1132.4 399.336 1131.34 400.164 1131.34 401.442C1131.34 402.486 1131.93 403.116 1133.16 403.404L1135.3 403.908C1137.42 404.394 1138.5 405.546 1138.5 407.382C1138.5 409.722 1136.68 411.216 1133.91 411.216C1131.27 411.216 1129.5 409.83 1129.39 407.598H1131.19C1131.23 408.84 1132.27 409.632 1133.91 409.632C1135.64 409.632 1136.74 408.822 1136.74 407.526C1136.74 406.5 1136.18 405.852 1134.94 405.564L1132.8 405.078C1130.67 404.592 1129.57 403.368 1129.57 401.496ZM1142.92 411H1141.22V403.62H1139.5V402.198H1141.22V399.444H1142.92V402.198H1144.64V403.62H1142.92V411ZM1148.63 411.216C1146.74 411.216 1145.62 410.154 1145.62 408.552C1145.62 406.932 1146.83 405.924 1148.9 405.762L1151.67 405.546V405.294C1151.67 403.818 1150.79 403.296 1149.6 403.296C1148.18 403.296 1147.37 403.926 1147.37 404.988H1145.89C1145.89 403.152 1147.41 401.946 1149.67 401.946C1151.85 401.946 1153.33 403.098 1153.33 405.474V411H1151.89L1151.71 409.578C1151.26 410.586 1150.05 411.216 1148.63 411.216ZM1149.12 409.902C1150.72 409.902 1151.69 408.858 1151.69 407.202V406.734L1149.44 406.914C1147.95 407.058 1147.33 407.634 1147.33 408.498C1147.33 409.434 1148.02 409.902 1149.12 409.902ZM1154.68 402.198H1155.98V400.794C1155.98 398.634 1157.15 397.752 1158.77 397.752C1159.09 397.752 1159.47 397.77 1159.79 397.824V399.282H1159.04C1157.94 399.282 1157.67 399.84 1157.67 400.794V402.198H1161.58V400.794C1161.58 398.634 1162.75 397.752 1164.35 397.752C1164.67 397.752 1165.07 397.77 1165.39 397.824V399.282H1164.64C1163.54 399.282 1163.25 399.84 1163.25 400.794V402.198H1165.34V403.62H1163.25V411H1161.58V403.62H1157.67V411H1155.98V403.62H1154.68V402.198ZM1166.18 408.444H1167.8C1167.8 409.344 1168.49 409.884 1169.6 409.884C1170.79 409.884 1171.48 409.398 1171.48 408.588C1171.48 407.994 1171.19 407.634 1170.27 407.4L1168.72 407.04C1167.16 406.662 1166.42 405.888 1166.42 404.592C1166.42 402.972 1167.79 401.946 1169.73 401.946C1171.66 401.946 1172.92 403.026 1172.95 404.7H1171.33C1171.3 403.818 1170.7 403.26 1169.68 403.26C1168.61 403.26 1168.02 403.728 1168.02 404.538C1168.02 405.132 1168.45 405.528 1169.32 405.744L1170.86 406.122C1172.36 406.482 1173.1 407.166 1173.1 408.48C1173.1 410.154 1171.66 411.216 1169.57 411.216C1167.5 411.216 1166.18 410.118 1166.18 408.444Z" fill="#F09227"/>
<rect x="991.783" y="436" width="212" height="40" rx="8" fill="#FFF4C3"/>
<path d="M1017.49 463H1009.55V449.986H1017.49V451.606H1011.31V455.674H1016.88V457.24H1011.31V461.362H1017.49V463ZM1023.28 463.216C1020.73 463.216 1019.18 461.308 1019.18 458.626C1019.18 455.926 1020.75 453.946 1023.36 453.946C1024.71 453.946 1025.84 454.54 1026.43 455.62V449.752H1028.11V463H1026.6L1026.45 461.398C1025.88 462.604 1024.69 463.216 1023.28 463.216ZM1023.63 461.686C1025.35 461.686 1026.42 460.408 1026.42 458.572C1026.42 456.772 1025.35 455.476 1023.63 455.476C1021.9 455.476 1020.89 456.772 1020.89 458.572C1020.89 460.39 1021.9 461.686 1023.63 461.686ZM1036.63 454.198H1038.31V463H1036.8L1036.62 461.668C1036.11 462.586 1034.94 463.216 1033.65 463.216C1031.59 463.216 1030.44 461.83 1030.44 459.67V454.198H1032.13V459.112C1032.13 461.002 1032.94 461.722 1034.24 461.722C1035.79 461.722 1036.63 460.732 1036.63 458.842V454.198ZM1040.01 458.608C1040.01 455.854 1041.76 453.946 1044.33 453.946C1046.54 453.946 1048.09 455.206 1048.4 457.168H1046.71C1046.42 456.052 1045.52 455.458 1044.38 455.458C1042.78 455.458 1041.68 456.682 1041.68 458.59C1041.68 460.48 1042.71 461.704 1044.31 461.704C1045.52 461.704 1046.42 461.074 1046.72 460.03H1048.42C1048.07 461.938 1046.44 463.216 1044.31 463.216C1041.72 463.216 1040.01 461.38 1040.01 458.608ZM1052.78 463.216C1050.89 463.216 1049.77 462.154 1049.77 460.552C1049.77 458.932 1050.98 457.924 1053.05 457.762L1055.82 457.546V457.294C1055.82 455.818 1054.94 455.296 1053.75 455.296C1052.33 455.296 1051.52 455.926 1051.52 456.988H1050.04C1050.04 455.152 1051.55 453.946 1053.82 453.946C1056 453.946 1057.47 455.098 1057.47 457.474V463H1056.03L1055.85 461.578C1055.4 462.586 1054.2 463.216 1052.78 463.216ZM1053.26 461.902C1054.86 461.902 1055.84 460.858 1055.84 459.202V458.734L1053.59 458.914C1052.09 459.058 1051.48 459.634 1051.48 460.498C1051.48 461.434 1052.16 461.902 1053.26 461.902ZM1062.16 463H1060.47V455.62H1058.74V454.198H1060.47V451.444H1062.16V454.198H1063.89V455.62H1062.16V463ZM1066.23 452.11C1065.62 452.11 1065.12 451.606 1065.12 450.994C1065.12 450.364 1065.62 449.878 1066.23 449.878C1066.85 449.878 1067.35 450.364 1067.35 450.994C1067.35 451.606 1066.85 452.11 1066.23 452.11ZM1065.41 463V454.198H1067.1V463H1065.41ZM1068.98 458.59C1068.98 455.872 1070.92 453.964 1073.57 453.964C1076.2 453.964 1078.14 455.872 1078.14 458.59C1078.14 461.308 1076.2 463.216 1073.57 463.216C1070.92 463.216 1068.98 461.308 1068.98 458.59ZM1070.69 458.59C1070.69 460.426 1071.86 461.704 1073.57 461.704C1075.26 461.704 1076.45 460.426 1076.45 458.59C1076.45 456.754 1075.26 455.476 1073.57 455.476C1071.86 455.476 1070.69 456.754 1070.69 458.59ZM1081.71 463H1080.01V454.198H1081.54L1081.72 455.548C1082.28 454.54 1083.4 453.946 1084.64 453.946C1086.96 453.946 1088.02 455.368 1088.02 457.618V463H1086.33V457.996C1086.33 456.214 1085.5 455.494 1084.21 455.494C1082.62 455.494 1081.71 456.628 1081.71 458.338V463ZM1092.94 463.216C1091.05 463.216 1089.94 462.154 1089.94 460.552C1089.94 458.932 1091.14 457.924 1093.21 457.762L1095.98 457.546V457.294C1095.98 455.818 1095.1 455.296 1093.91 455.296C1092.49 455.296 1091.68 455.926 1091.68 456.988H1090.21C1090.21 455.152 1091.72 453.946 1093.99 453.946C1096.16 453.946 1097.64 455.098 1097.64 457.474V463H1096.2L1096.02 461.578C1095.57 462.586 1094.36 463.216 1092.94 463.216ZM1093.43 461.902C1095.03 461.902 1096 460.858 1096 459.202V458.734L1093.75 458.914C1092.26 459.058 1091.65 459.634 1091.65 460.498C1091.65 461.434 1092.33 461.902 1093.43 461.902ZM1101.71 463H1100.02V449.752H1101.71V463ZM1111.18 449.986V463H1109.41V449.986H1111.18ZM1115.61 463H1113.92V454.198H1115.45L1115.63 455.548C1116.19 454.54 1117.31 453.946 1118.55 453.946C1120.87 453.946 1121.93 455.368 1121.93 457.618V463H1120.24V457.996C1120.24 456.214 1119.41 455.494 1118.12 455.494C1116.53 455.494 1115.61 456.628 1115.61 458.338V463ZM1123.45 460.444H1125.07C1125.07 461.344 1125.75 461.884 1126.87 461.884C1128.06 461.884 1128.74 461.398 1128.74 460.588C1128.74 459.994 1128.45 459.634 1127.54 459.4L1125.99 459.04C1124.42 458.662 1123.68 457.888 1123.68 456.592C1123.68 454.972 1125.05 453.946 1127 453.946C1128.92 453.946 1130.18 455.026 1130.22 456.7H1128.6C1128.56 455.818 1127.97 455.26 1126.94 455.26C1125.88 455.26 1125.29 455.728 1125.29 456.538C1125.29 457.132 1125.72 457.528 1126.58 457.744L1128.13 458.122C1129.62 458.482 1130.36 459.166 1130.36 460.48C1130.36 462.154 1128.92 463.216 1126.83 463.216C1124.76 463.216 1123.45 462.118 1123.45 460.444ZM1134.72 463H1133.03V455.62H1131.3V454.198H1133.03V451.444H1134.72V454.198H1136.45V455.62H1134.72V463ZM1138.8 452.11C1138.19 452.11 1137.68 451.606 1137.68 450.994C1137.68 450.364 1138.19 449.878 1138.8 449.878C1139.41 449.878 1139.91 450.364 1139.91 450.994C1139.91 451.606 1139.41 452.11 1138.8 452.11ZM1137.97 463V454.198H1139.66V463H1137.97ZM1144.6 463H1142.91V455.62H1141.18V454.198H1142.91V451.444H1144.6V454.198H1146.33V455.62H1144.6V463ZM1153.93 454.198H1155.61V463H1154.09L1153.91 461.668C1153.41 462.586 1152.24 463.216 1150.94 463.216C1148.89 463.216 1147.74 461.83 1147.74 459.67V454.198H1149.43V459.112C1149.43 461.002 1150.24 461.722 1151.54 461.722C1153.09 461.722 1153.93 460.732 1153.93 458.842V454.198ZM1160.54 463H1158.85V455.62H1157.12V454.198H1158.85V451.444H1160.54V454.198H1162.27V455.62H1160.54V463ZM1164.62 452.11C1164.01 452.11 1163.5 451.606 1163.5 450.994C1163.5 450.364 1164.01 449.878 1164.62 449.878C1165.23 449.878 1165.74 450.364 1165.74 450.994C1165.74 451.606 1165.23 452.11 1164.62 452.11ZM1163.79 463V454.198H1165.48V463H1163.79ZM1167.36 458.59C1167.36 455.872 1169.31 453.964 1171.95 453.964C1174.58 453.964 1176.53 455.872 1176.53 458.59C1176.53 461.308 1174.58 463.216 1171.95 463.216C1169.31 463.216 1167.36 461.308 1167.36 458.59ZM1169.07 458.59C1169.07 460.426 1170.24 461.704 1171.95 461.704C1173.65 461.704 1174.83 460.426 1174.83 458.59C1174.83 456.754 1173.65 455.476 1171.95 455.476C1170.24 455.476 1169.07 456.754 1169.07 458.59ZM1180.09 463H1178.4V454.198H1179.93L1180.11 455.548C1180.67 454.54 1181.78 453.946 1183.02 453.946C1185.35 453.946 1186.41 455.368 1186.41 457.618V463H1184.72V457.996C1184.72 456.214 1183.89 455.494 1182.59 455.494C1181.01 455.494 1180.09 456.628 1180.09 458.338V463Z" fill="#F09227"/>
<path d="M1251.14 546.36C1251.33 546.165 1251.33 545.848 1251.14 545.653L1247.96 542.47C1247.76 542.274 1247.44 542.274 1247.25 542.469C1247.05 542.665 1247.05 542.981 1247.25 543.176L1250.08 546.006L1247.25 548.833C1247.05 549.029 1247.05 549.345 1247.25 549.54C1247.44 549.736 1247.76 549.736 1247.95 549.541L1251.14 546.36ZM599.783 545.75L599.783 546.25L1250.78 546.506L1250.78 546.006L1250.78 545.506L599.783 545.25L599.783 545.75Z" fill="black"/>
<path d="M572.137 100.646C571.941 100.451 571.625 100.451 571.43 100.646L568.248 103.828C568.052 104.024 568.052 104.34 568.248 104.536C568.443 104.731 568.76 104.731 568.955 104.536L571.783 101.707L574.612 104.536C574.807 104.731 575.123 104.731 575.319 104.536C575.514 104.34 575.514 104.024 575.319 103.828L572.137 100.646ZM571.783 513H572.283V101H571.783H571.283V513H571.783Z" fill="black"/>
<rect width="78" height="26" transform="translate(888.783 533)" fill="#F9F8F5"/>
<path d="M901.805 538.842L899.735 552H897.521L899.609 538.842H901.805ZM904.435 552H902.329L903.733 543.108H905.677V544.314C906.451 543.288 907.279 542.838 908.467 542.838C910.465 542.838 911.743 544.458 911.419 546.546L910.555 552H908.449L909.223 547.05C909.475 545.592 908.863 544.746 907.621 544.746C906.343 544.746 905.443 545.664 905.191 547.23L904.435 552ZM915.652 552H913.546L914.662 544.872H912.97L913.258 543.108H914.95L915.382 540.354H917.488L917.056 543.108H918.748L918.46 544.872H916.768L915.652 552ZM922.764 552.216C920.28 552.216 918.732 550.704 918.732 548.238C918.732 545.196 920.892 542.874 923.7 542.874C926.328 542.874 927.822 544.692 927.408 547.374L927.3 548.04L920.766 548.058V548.112C920.766 549.624 921.504 550.47 922.872 550.47C923.88 550.47 924.69 549.984 925.068 549.138H927.156C926.544 550.992 924.78 552.216 922.764 552.216ZM923.574 544.602C922.404 544.602 921.414 545.448 921 546.69H925.41C925.608 545.43 924.87 544.602 923.574 544.602ZM935.255 543.054L934.931 545.034H934.139C932.609 545.034 931.493 545.898 931.223 547.608L930.521 552H928.415L929.819 543.108H931.781L931.709 544.476C932.195 543.54 933.131 542.946 934.283 542.946C934.607 542.946 934.949 542.982 935.255 543.054ZM939.165 552.216C936.681 552.216 935.133 550.704 935.133 548.238C935.133 545.196 937.293 542.874 940.101 542.874C942.729 542.874 944.223 544.692 943.809 547.374L943.701 548.04L937.167 548.058V548.112C937.167 549.624 937.905 550.47 939.273 550.47C940.281 550.47 941.091 549.984 941.469 549.138H943.557C942.945 550.992 941.181 552.216 939.165 552.216ZM939.975 544.602C938.805 544.602 937.815 545.448 937.401 546.69H941.811C942.009 545.43 941.271 544.602 939.975 544.602ZM944.51 549.336H946.544C946.58 550.128 947.174 550.596 948.11 550.596C949.064 550.596 949.712 550.164 949.712 549.498C949.712 548.994 949.478 548.742 948.83 548.526L947.318 548.022C946.076 547.626 945.356 546.87 945.356 545.7C945.356 543.972 946.724 542.874 948.902 542.874C950.846 542.874 952.124 544.008 952.124 545.718H950.09C950.072 544.908 949.586 544.458 948.74 544.458C947.876 544.458 947.372 544.836 947.372 545.484C947.372 545.988 947.696 546.33 948.38 546.564L949.874 547.05C951.152 547.482 951.746 548.184 951.746 549.264C951.746 551.082 950.306 552.198 947.966 552.198C945.896 552.198 944.51 551.064 944.51 549.336ZM955.607 552H953.501L954.617 544.872H952.925L953.213 543.108H954.905L955.337 540.354H957.443L957.011 543.108H958.703L958.415 544.872H956.723L955.607 552Z" fill="black"/>
<path d="M1262.79 552H1261.49V539.112H1262.79V544.854H1269.76V539.112H1271.03V552H1269.76V546.06H1262.79V552ZM1274.53 540.894C1274.02 540.894 1273.61 540.48 1273.61 539.976C1273.61 539.472 1274.02 539.04 1274.53 539.04C1275.03 539.04 1275.46 539.472 1275.46 539.976C1275.46 540.48 1275.03 540.894 1274.53 540.894ZM1273.92 552V543.288H1275.16V552H1273.92ZM1277.15 547.392C1277.15 545.016 1278.68 543.054 1281.24 543.054C1282.75 543.054 1283.9 543.756 1284.46 545.034L1284.59 543.288H1285.67V551.73C1285.67 554.322 1284.01 556.014 1281.46 556.014C1279.22 556.014 1277.66 554.754 1277.32 552.648H1278.56C1278.83 554.052 1279.91 554.88 1281.47 554.88C1283.26 554.88 1284.44 553.674 1284.44 551.856V549.786C1283.85 551.01 1282.64 551.73 1281.15 551.73C1278.67 551.73 1277.15 549.768 1277.15 547.392ZM1278.4 547.374C1278.4 549.156 1279.49 550.614 1281.33 550.614C1283.22 550.614 1284.34 549.246 1284.34 547.374C1284.34 545.52 1283.26 544.152 1281.35 544.152C1279.48 544.152 1278.4 545.61 1278.4 547.374ZM1289.5 551.982H1288.26V538.878H1289.5V544.8C1290.06 543.756 1291.12 543.054 1292.58 543.054C1294.87 543.054 1295.89 544.476 1295.89 546.672V552H1294.65V546.942C1294.65 544.908 1293.7 544.188 1292.35 544.188C1290.47 544.188 1289.5 545.574 1289.5 547.248V551.982Z" fill="black"/>
<path d="M577.5 90.7093V92.0053H564.612V90.7093H570.354V83.7433H564.612V82.4653H577.5V83.7433H571.56V90.7093H577.5ZM566.394 78.9719C566.394 79.4759 565.98 79.8899 565.476 79.8899C564.972 79.8899 564.54 79.4759 564.54 78.9719C564.54 78.4679 564.972 78.0359 565.476 78.0359C565.98 78.0359 566.394 78.4679 566.394 78.9719ZM577.5 79.5839H568.788V78.3419H577.5V79.5839ZM572.892 76.3459C570.516 76.3459 568.554 74.8159 568.554 72.2599C568.554 70.7479 569.256 69.5959 570.534 69.0379L568.788 68.9119V67.8319H577.23C579.822 67.8319 581.514 69.4879 581.514 72.0439C581.514 74.2759 580.254 75.8419 578.148 76.1839V74.9419C579.552 74.6719 580.38 73.5919 580.38 72.0259C580.38 70.2439 579.174 69.0559 577.356 69.0559H575.286C576.51 69.6499 577.23 70.8559 577.23 72.3499C577.23 74.8339 575.268 76.3459 572.892 76.3459ZM572.874 75.1039C574.656 75.1039 576.114 74.0059 576.114 72.1699C576.114 70.2799 574.746 69.1639 572.874 69.1639C571.02 69.1639 569.652 70.2439 569.652 72.1519C569.652 74.0239 571.11 75.1039 572.874 75.1039ZM577.482 63.9981V65.2401H564.378V63.9981H570.3C569.256 63.4401 568.554 62.3781 568.554 60.9201C568.554 58.6341 569.976 57.6081 572.172 57.6081H577.5V58.8501H572.442C570.408 58.8501 569.688 59.8041 569.688 61.1541C569.688 63.0261 571.074 63.9981 572.748 63.9981H577.482Z" fill="black"/>
<path d="M565.612 549.731H577.312V543.809H578.5V551.027H565.612V549.731ZM574.144 542.926C571.48 542.926 569.554 541.054 569.554 538.498C569.554 535.942 571.48 534.07 574.144 534.07C576.79 534.07 578.716 535.942 578.716 538.498C578.716 541.054 576.79 542.926 574.144 542.926ZM574.126 541.666C576.178 541.666 577.6 540.37 577.6 538.498C577.6 536.644 576.178 535.33 574.126 535.33C572.11 535.33 570.67 536.644 570.67 538.498C570.67 540.37 572.11 541.666 574.126 541.666ZM578.5 530.635L569.788 533.515V532.237L575.044 530.527C575.62 530.329 576.214 530.167 576.916 529.987C576.214 529.843 575.332 529.555 575.044 529.465L569.788 527.737V526.459L575.044 524.749C575.512 524.587 576.268 524.371 576.916 524.209C576.196 524.029 575.98 523.993 575.044 523.687L569.788 521.959V520.663L578.5 523.615V524.821L573.028 526.621C572.38 526.837 571.84 526.981 571.318 527.089C571.786 527.215 572.308 527.359 573.028 527.593L578.5 529.393V530.635Z" fill="black"/>
<g clip-path="url(#clip0_442_743)">
<rect width="67" height="26" transform="matrix(0 -1 1 0 558.5 308)" fill="#F9F8F5"/>
<path d="M573.946 294.192V297.018L578.5 297.738V299.952L565.342 297.864V293.13C565.342 290.754 566.836 289.206 569.14 289.206C571.984 289.206 573.946 291.222 573.946 294.192ZM567.34 293.688V295.974L571.948 296.712V294.336C571.948 292.554 570.994 291.492 569.338 291.492C568.096 291.492 567.34 292.302 567.34 293.688ZM574.684 289.094C571.714 289.094 569.374 286.772 569.374 283.874C569.374 281.336 570.994 279.626 573.406 279.626C576.376 279.626 578.716 281.93 578.716 284.846C578.716 287.384 577.096 289.094 574.684 289.094ZM574.522 286.934C575.926 286.934 576.844 286.088 576.844 284.72C576.844 283.1 575.386 281.786 573.568 281.786C572.146 281.786 571.228 282.632 571.228 283.982C571.228 285.602 572.686 286.934 574.522 286.934ZM578.5 277.239L569.608 278.679V276.555L573.532 276.015C574.18 275.925 575.008 275.853 575.8 275.799C575.116 275.547 574.36 275.241 573.532 274.863L569.608 273.045V270.885L573.532 270.345C573.928 270.291 575.152 270.183 575.8 270.129C575.026 269.823 574.036 269.427 573.532 269.193L569.608 267.375V265.071L578.5 269.481V271.425L574.54 272.055C573.712 272.163 572.434 272.307 571.984 272.325C572.488 272.523 573.676 273.009 574.576 273.387L578.5 275.151V277.239ZM578.716 261.419C578.716 263.903 577.204 265.451 574.738 265.451C571.696 265.451 569.374 263.291 569.374 260.483C569.374 257.855 571.192 256.361 573.874 256.775L574.54 256.883L574.558 263.417H574.612C576.124 263.417 576.97 262.679 576.97 261.311C576.97 260.303 576.484 259.493 575.638 259.115V257.027C577.492 257.639 578.716 259.403 578.716 261.419ZM571.102 260.609C571.102 261.779 571.948 262.769 573.19 263.183V258.773C571.93 258.575 571.102 259.313 571.102 260.609ZM569.554 248.928L571.534 249.252V250.044C571.534 251.574 572.398 252.69 574.108 252.96L578.5 253.662V255.768L569.608 254.364V252.402L570.976 252.474C570.04 251.988 569.446 251.052 569.446 249.9C569.446 249.576 569.482 249.234 569.554 248.928Z" fill="black"/>
</g>
<defs>
<clipPath id="clip0_442_743">
<rect width="67" height="26" fill="white" transform="matrix(0 -1 1 0 558.5 308)"/>
</clipPath>
</defs>
</svg>
